<svg width="24" height="24" viewBox="0 0 24 24" fill="none" xmlns="http://www.w3.org/2000/svg">
<path d="M12.0001 15.1247C10.2798 15.1247 8.8759 13.7208 8.8759 12.0005C8.8759 10.2802 10.2798 8.87626 12.0001 8.87626C13.7204 8.87626 15.1243 10.2802 15.1243 12.0005C15.1243 13.7208 13.7204 15.1247 12.0001 15.1247ZM21.3704 12.0005C21.3704 13.2942 21.3822 14.5763 21.3095 15.8677C21.2368 17.3677 20.8947 18.6989 19.7978 19.7958C18.6986 20.895 17.3697 21.2348 15.8697 21.3075C14.5759 21.3802 13.2939 21.3684 12.0025 21.3684C10.7087 21.3684 9.42668 21.3802 8.13527 21.3075C6.63527 21.2348 5.30402 20.8927 4.20714 19.7958C3.10792 18.6966 2.76808 17.3677 2.69542 15.8677C2.62277 14.5739 2.63449 13.2919 2.63449 12.0005C2.63449 10.7091 2.62277 9.4247 2.69542 8.13329C2.76808 6.63329 3.11027 5.30204 4.20714 4.20517C5.30636 3.10595 6.63527 2.76611 8.13527 2.69345C9.42902 2.6208 10.7111 2.63251 12.0025 2.63251C13.2962 2.63251 14.5782 2.6208 15.8697 2.69345C17.3697 2.76611 18.7009 3.1083 19.7978 4.20517C20.897 5.30439 21.2368 6.63329 21.3095 8.13329C21.3845 9.4247 21.3704 10.7067 21.3704 12.0005ZM12.0001 7.19345C9.33996 7.19345 7.19308 9.34032 7.19308 12.0005C7.19308 14.6606 9.33996 16.8075 12.0001 16.8075C14.6603 16.8075 16.8072 14.6606 16.8072 12.0005C16.8072 9.34032 14.6603 7.19345 12.0001 7.19345ZM17.004 15.8817C16.3829 15.8817 15.8814 16.3833 15.8814 17.0044C15.8814 17.6255 16.3829 18.127 17.004 18.127C17.6251 18.127 18.1267 17.6255 18.1267 17.0044C18.1269 16.8569 18.098 16.7108 18.0416 16.5745C17.9853 16.4383 17.9026 16.3144 17.7983 16.2101C17.694 16.1058 17.5702 16.0232 17.4339 15.9668C17.2976 15.9105 17.1515 15.8815 17.004 15.8817Z" fill="black"/>
</svg>
