<svg width="53" height="25" viewBox="0 0 53 25" fill="none" xmlns="http://www.w3.org/2000/svg">
<rect x="0.533203" y="0.5" width="51" height="24" rx="4.5" stroke="#FF0000"/>
<path d="M4.3832 14.71V13.66H8.0232V14.71H4.3832ZM9.71119 18V17.412H10.6492C10.8639 17.412 11.0552 17.3887 11.2232 17.342C11.4005 17.2953 11.5405 17.202 11.6432 17.062C11.7459 16.9127 11.7972 16.6933 11.7972 16.404V9.054C11.5639 9.34333 11.3445 9.6 11.1392 9.824C10.9339 10.0387 10.7379 10.2067 10.5512 10.328C10.3645 10.4493 10.1779 10.51 9.99119 10.51C9.78585 10.51 9.61785 10.44 9.48719 10.3C9.35652 10.16 9.29119 9.978 9.29119 9.754C9.47785 9.70733 9.66919 9.64667 9.86519 9.572C10.0612 9.488 10.2759 9.376 10.5092 9.236C10.7519 9.08667 11.0272 8.9 11.3352 8.676L12.3152 7.948H13.2112V16.404C13.2112 16.6933 13.2625 16.9127 13.3652 17.062C13.4679 17.202 13.6079 17.2953 13.7852 17.342C13.9625 17.3887 14.1539 17.412 14.3592 17.412H15.0452V18H9.71119ZM17.9375 18.098C17.6948 18.098 17.4848 18.028 17.3075 17.888C17.1395 17.748 17.0555 17.5007 17.0555 17.146C17.0555 16.782 17.1395 16.5347 17.3075 16.404C17.4848 16.264 17.6948 16.194 17.9375 16.194C18.1802 16.194 18.3855 16.264 18.5535 16.404C18.7308 16.5347 18.8195 16.782 18.8195 17.146C18.8195 17.5007 18.7308 17.748 18.5535 17.888C18.3855 18.028 18.1802 18.098 17.9375 18.098ZM23.6075 18.14C22.8422 18.14 22.2168 17.9253 21.7315 17.496C21.2462 17.0667 20.8868 16.4647 20.6535 15.69C20.4295 14.9153 20.3175 14.01 20.3175 12.974C20.3175 11.938 20.4295 11.0373 20.6535 10.272C20.8868 9.50667 21.2462 8.914 21.7315 8.494C22.2168 8.074 22.8468 7.864 23.6215 7.864C24.3495 7.864 24.9562 8.074 25.4415 8.494C25.9268 8.914 26.2862 9.51133 26.5195 10.286C26.7622 11.0513 26.8835 11.952 26.8835 12.988C26.8835 14.024 26.7622 14.9293 26.5195 15.704C26.2768 16.4693 25.9128 17.0667 25.4275 17.496C24.9515 17.9253 24.3448 18.14 23.6075 18.14ZM23.6075 17.384C23.9435 17.384 24.2282 17.286 24.4615 17.09C24.6948 16.894 24.8815 16.6093 25.0215 16.236C25.1615 15.8533 25.2642 15.3913 25.3295 14.85C25.3948 14.2993 25.4275 13.6787 25.4275 12.988C25.4275 12.2973 25.3948 11.6813 25.3295 11.14C25.2735 10.5987 25.1708 10.1413 25.0215 9.768C24.8815 9.39467 24.6948 9.11 24.4615 8.914C24.2375 8.718 23.9575 8.62 23.6215 8.62C23.2762 8.62 22.9868 8.718 22.7535 8.914C22.5202 9.11 22.3288 9.39467 22.1795 9.768C22.0395 10.1413 21.9368 10.5987 21.8715 11.14C21.8062 11.6813 21.7735 12.2973 21.7735 12.988C21.7735 13.6787 21.8062 14.2993 21.8715 14.85C21.9368 15.3913 22.0395 15.8533 22.1795 16.236C22.3195 16.6093 22.5062 16.894 22.7395 17.09C22.9822 17.286 23.2715 17.384 23.6075 17.384ZM28.8518 18V17.412H29.7898C30.0045 17.412 30.1958 17.3887 30.3638 17.342C30.5411 17.2953 30.6811 17.202 30.7838 17.062C30.8865 16.9127 30.9378 16.6933 30.9378 16.404V9.054C30.7045 9.34333 30.4851 9.6 30.2798 9.824C30.0745 10.0387 29.8785 10.2067 29.6918 10.328C29.5051 10.4493 29.3185 10.51 29.1318 10.51C28.9265 10.51 28.7585 10.44 28.6278 10.3C28.4971 10.16 28.4318 9.978 28.4318 9.754C28.6185 9.70733 28.8098 9.64667 29.0058 9.572C29.2018 9.488 29.4165 9.376 29.6498 9.236C29.8925 9.08667 30.1678 8.9 30.4758 8.676L31.4558 7.948H32.3518V16.404C32.3518 16.6933 32.4031 16.9127 32.5058 17.062C32.6085 17.202 32.7485 17.2953 32.9258 17.342C33.1031 17.3887 33.2945 17.412 33.4998 17.412H34.1858V18H28.8518ZM38.6181 18L43.6161 8.004H44.5261L39.5421 18H38.6181ZM38.2541 14.08C37.4515 14.08 36.8681 13.7953 36.5041 13.226C36.1401 12.6473 35.9581 11.8913 35.9581 10.958C35.9581 10.0153 36.1401 9.264 36.5041 8.704C36.8681 8.144 37.4561 7.864 38.2681 7.864C39.0335 7.864 39.6028 8.144 39.9761 8.704C40.3588 9.264 40.5501 10.0153 40.5501 10.958C40.5501 11.5833 40.4661 12.1293 40.2981 12.596C40.1301 13.0627 39.8735 13.4267 39.5281 13.688C39.1921 13.9493 38.7675 14.08 38.2541 14.08ZM38.2541 13.506C38.5155 13.506 38.7161 13.408 38.8561 13.212C39.0055 13.0067 39.1128 12.7127 39.1781 12.33C39.2435 11.9473 39.2761 11.49 39.2761 10.958C39.2761 10.426 39.2435 9.97333 39.1781 9.6C39.1128 9.22667 39.0055 8.942 38.8561 8.746C38.7161 8.55 38.5201 8.452 38.2681 8.452C38.0161 8.452 37.8108 8.55 37.6521 8.746C37.5028 8.942 37.3908 9.22667 37.3161 9.6C37.2508 9.97333 37.2181 10.426 37.2181 10.958C37.2181 11.49 37.2508 11.9473 37.3161 12.33C37.3908 12.7127 37.5028 13.0067 37.6521 13.212C37.8015 13.408 38.0021 13.506 38.2541 13.506ZM44.9461 18.14C44.1435 18.14 43.5601 17.8553 43.1961 17.286C42.8321 16.7073 42.6501 15.9513 42.6501 15.018C42.6501 14.0753 42.8321 13.324 43.1961 12.764C43.5601 12.204 44.1481 11.924 44.9601 11.924C45.7255 11.924 46.2948 12.204 46.6681 12.764C47.0508 13.324 47.2421 14.0753 47.2421 15.018C47.2421 15.6433 47.1581 16.1893 46.9901 16.656C46.8221 17.1227 46.5655 17.4867 46.2201 17.748C45.8841 18.0093 45.4595 18.14 44.9461 18.14ZM44.9461 17.566C45.2075 17.566 45.4081 17.468 45.5481 17.272C45.6975 17.0667 45.8048 16.7727 45.8701 16.39C45.9355 16.0073 45.9681 15.55 45.9681 15.018C45.9681 14.486 45.9355 14.0333 45.8701 13.66C45.8048 13.2867 45.6975 13.002 45.5481 12.806C45.4081 12.61 45.2121 12.512 44.9601 12.512C44.7081 12.512 44.5028 12.61 44.3441 12.806C44.1948 13.002 44.0828 13.2867 44.0081 13.66C43.9428 14.0333 43.9101 14.486 43.9101 15.018C43.9101 15.55 43.9428 16.0073 44.0081 16.39C44.0828 16.7727 44.1948 17.0667 44.3441 17.272C44.4935 17.468 44.6941 17.566 44.9461 17.566Z" fill="#FF0000"/>
</svg>
