<svg width="57" height="25" viewBox="0 0 57 25" fill="none" xmlns="http://www.w3.org/2000/svg">
<rect x="0.735352" y="0.5" width="55" height="24" rx="4.5" stroke="#FFD600"/>
<path d="M7.72135 15.998V13.408H5.14535V12.582H7.72135V9.992H8.56135V12.582H11.1514V13.408H8.56135V15.998H7.72135ZM15.9757 18.14C15.2103 18.14 14.585 17.9253 14.0997 17.496C13.6143 17.0667 13.255 16.4647 13.0217 15.69C12.7977 14.9153 12.6857 14.01 12.6857 12.974C12.6857 11.938 12.7977 11.0373 13.0217 10.272C13.255 9.50667 13.6143 8.914 14.0997 8.494C14.585 8.074 15.215 7.864 15.9897 7.864C16.7177 7.864 17.3243 8.074 17.8097 8.494C18.295 8.914 18.6543 9.51133 18.8877 10.286C19.1303 11.0513 19.2517 11.952 19.2517 12.988C19.2517 14.024 19.1303 14.9293 18.8877 15.704C18.645 16.4693 18.281 17.0667 17.7957 17.496C17.3197 17.9253 16.713 18.14 15.9757 18.14ZM15.9757 17.384C16.3117 17.384 16.5963 17.286 16.8297 17.09C17.063 16.894 17.2497 16.6093 17.3897 16.236C17.5297 15.8533 17.6323 15.3913 17.6977 14.85C17.763 14.2993 17.7957 13.6787 17.7957 12.988C17.7957 12.2973 17.763 11.6813 17.6977 11.14C17.6417 10.5987 17.539 10.1413 17.3897 9.768C17.2497 9.39467 17.063 9.11 16.8297 8.914C16.6057 8.718 16.3257 8.62 15.9897 8.62C15.6443 8.62 15.355 8.718 15.1217 8.914C14.8883 9.11 14.697 9.39467 14.5477 9.768C14.4077 10.1413 14.305 10.5987 14.2397 11.14C14.1743 11.6813 14.1417 12.2973 14.1417 12.988C14.1417 13.6787 14.1743 14.2993 14.2397 14.85C14.305 15.3913 14.4077 15.8533 14.5477 16.236C14.6877 16.6093 14.8743 16.894 15.1077 17.09C15.3503 17.286 15.6397 17.384 15.9757 17.384ZM21.626 18.098C21.3833 18.098 21.1733 18.028 20.996 17.888C20.828 17.748 20.744 17.5007 20.744 17.146C20.744 16.782 20.828 16.5347 20.996 16.404C21.1733 16.264 21.3833 16.194 21.626 16.194C21.8686 16.194 22.074 16.264 22.242 16.404C22.4193 16.5347 22.508 16.782 22.508 17.146C22.508 17.5007 22.4193 17.748 22.242 17.888C22.074 18.028 21.8686 18.098 21.626 18.098ZM24.72 18V17.412H25.658C25.8726 17.412 26.064 17.3887 26.232 17.342C26.4093 17.2953 26.5493 17.202 26.652 17.062C26.7546 16.9127 26.806 16.6933 26.806 16.404V9.054C26.5726 9.34333 26.3533 9.6 26.148 9.824C25.9426 10.0387 25.7466 10.2067 25.56 10.328C25.3733 10.4493 25.1866 10.51 25 10.51C24.7946 10.51 24.6266 10.44 24.496 10.3C24.3653 10.16 24.3 9.978 24.3 9.754C24.4866 9.70733 24.678 9.64667 24.874 9.572C25.07 9.488 25.2846 9.376 25.518 9.236C25.7606 9.08667 26.036 8.9 26.344 8.676L27.324 7.948H28.22V16.404C28.22 16.6933 28.2713 16.9127 28.374 17.062C28.4766 17.202 28.6166 17.2953 28.794 17.342C28.9713 17.3887 29.1626 17.412 29.368 17.412H30.054V18H24.72ZM34.6543 18.14C34.0383 18.14 33.5343 18.07 33.1423 17.93C32.7503 17.7807 32.461 17.5893 32.2743 17.356C32.097 17.1133 32.0083 16.8567 32.0083 16.586C32.0083 16.306 32.0876 16.0867 32.2463 15.928C32.4143 15.7693 32.629 15.69 32.8903 15.69C32.8903 16.0167 32.9603 16.3107 33.1003 16.572C33.2403 16.824 33.441 17.0247 33.7023 17.174C33.973 17.314 34.295 17.384 34.6683 17.384C35.0416 17.384 35.3823 17.314 35.6903 17.174C36.0076 17.0247 36.2643 16.7867 36.4603 16.46C36.6563 16.1333 36.7543 15.69 36.7543 15.13C36.7543 14.738 36.6516 14.3973 36.4463 14.108C36.241 13.8093 35.947 13.5807 35.5643 13.422C35.191 13.2633 34.743 13.184 34.2203 13.184H33.7723V12.47H34.2203C34.631 12.47 34.9996 12.3813 35.3263 12.204C35.6623 12.0267 35.9283 11.7747 36.1243 11.448C36.3203 11.1213 36.4183 10.7387 36.4183 10.3C36.4183 9.74933 36.3016 9.32467 36.0683 9.026C35.8443 8.718 35.4616 8.564 34.9203 8.564C34.5003 8.564 34.1783 8.662 33.9543 8.858C33.7303 9.054 33.5763 9.31067 33.4923 9.628C33.4176 9.936 33.3803 10.2767 33.3803 10.65C33.0443 10.65 32.7596 10.5893 32.5263 10.468C32.293 10.3373 32.1763 10.0947 32.1763 9.74C32.1763 9.376 32.279 9.054 32.4843 8.774C32.6896 8.494 32.9976 8.27467 33.4083 8.116C33.819 7.948 34.323 7.864 34.9203 7.864C35.807 7.864 36.5163 8.06 37.0483 8.452C37.5896 8.83467 37.8603 9.38067 37.8603 10.09C37.8603 10.51 37.7623 10.8973 37.5663 11.252C37.3703 11.5973 37.1043 11.896 36.7683 12.148C36.4323 12.3907 36.0496 12.5633 35.6203 12.666C35.8816 12.694 36.1616 12.7547 36.4603 12.848C36.759 12.932 37.039 13.0673 37.3003 13.254C37.571 13.4407 37.7903 13.688 37.9583 13.996C38.1263 14.2947 38.2103 14.6773 38.2103 15.144C38.2103 15.704 38.103 16.18 37.8883 16.572C37.6736 16.9547 37.389 17.2627 37.0343 17.496C36.6796 17.72 36.2923 17.8833 35.8723 17.986C35.4616 18.0887 35.0556 18.14 34.6543 18.14ZM42.3066 18L47.3046 8.004H48.2146L43.2306 18H42.3066ZM41.9426 14.08C41.1399 14.08 40.5566 13.7953 40.1926 13.226C39.8286 12.6473 39.6466 11.8913 39.6466 10.958C39.6466 10.0153 39.8286 9.264 40.1926 8.704C40.5566 8.144 41.1446 7.864 41.9566 7.864C42.7219 7.864 43.2913 8.144 43.6646 8.704C44.0473 9.264 44.2386 10.0153 44.2386 10.958C44.2386 11.5833 44.1546 12.1293 43.9866 12.596C43.8186 13.0627 43.5619 13.4267 43.2166 13.688C42.8806 13.9493 42.4559 14.08 41.9426 14.08ZM41.9426 13.506C42.2039 13.506 42.4046 13.408 42.5446 13.212C42.6939 13.0067 42.8013 12.7127 42.8666 12.33C42.9319 11.9473 42.9646 11.49 42.9646 10.958C42.9646 10.426 42.9319 9.97333 42.8666 9.6C42.8013 9.22667 42.6939 8.942 42.5446 8.746C42.4046 8.55 42.2086 8.452 41.9566 8.452C41.7046 8.452 41.4993 8.55 41.3406 8.746C41.1913 8.942 41.0793 9.22667 41.0046 9.6C40.9393 9.97333 40.9066 10.426 40.9066 10.958C40.9066 11.49 40.9393 11.9473 41.0046 12.33C41.0793 12.7127 41.1913 13.0067 41.3406 13.212C41.4899 13.408 41.6906 13.506 41.9426 13.506ZM48.6346 18.14C47.8319 18.14 47.2486 17.8553 46.8846 17.286C46.5206 16.7073 46.3386 15.9513 46.3386 15.018C46.3386 14.0753 46.5206 13.324 46.8846 12.764C47.2486 12.204 47.8366 11.924 48.6486 11.924C49.4139 11.924 49.9833 12.204 50.3566 12.764C50.7393 13.324 50.9306 14.0753 50.9306 15.018C50.9306 15.6433 50.8466 16.1893 50.6786 16.656C50.5106 17.1227 50.2539 17.4867 49.9086 17.748C49.5726 18.0093 49.1479 18.14 48.6346 18.14ZM48.6346 17.566C48.8959 17.566 49.0966 17.468 49.2366 17.272C49.3859 17.0667 49.4933 16.7727 49.5586 16.39C49.6239 16.0073 49.6566 15.55 49.6566 15.018C49.6566 14.486 49.6239 14.0333 49.5586 13.66C49.4933 13.2867 49.3859 13.002 49.2366 12.806C49.0966 12.61 48.9006 12.512 48.6486 12.512C48.3966 12.512 48.1913 12.61 48.0326 12.806C47.8833 13.002 47.7713 13.2867 47.6966 13.66C47.6313 14.0333 47.5986 14.486 47.5986 15.018C47.5986 15.55 47.6313 16.0073 47.6966 16.39C47.7713 16.7727 47.8833 17.0667 48.0326 17.272C48.1819 17.468 48.3826 17.566 48.6346 17.566Z" fill="#FFD600"/>
</svg>
