<svg width="57" height="25" viewBox="0 0 57 25" fill="none" xmlns="http://www.w3.org/2000/svg">
<rect x="0.602539" y="0.5" width="55" height="24" rx="4.5" stroke="#FFD600"/>
<path d="M7.58854 15.998V13.408H5.01254V12.582H7.58854V9.992H8.42854V12.582H11.0185V13.408H8.42854V15.998H7.58854ZM15.8429 18.14C15.0775 18.14 14.4522 17.9253 13.9669 17.496C13.4815 17.0667 13.1222 16.4647 12.8889 15.69C12.6649 14.9153 12.5529 14.01 12.5529 12.974C12.5529 11.938 12.6649 11.0373 12.8889 10.272C13.1222 9.50667 13.4815 8.914 13.9669 8.494C14.4522 8.074 15.0822 7.864 15.8569 7.864C16.5849 7.864 17.1915 8.074 17.6769 8.494C18.1622 8.914 18.5215 9.51133 18.7549 10.286C18.9975 11.0513 19.1189 11.952 19.1189 12.988C19.1189 14.024 18.9975 14.9293 18.7549 15.704C18.5122 16.4693 18.1482 17.0667 17.6629 17.496C17.1869 17.9253 16.5802 18.14 15.8429 18.14ZM15.8429 17.384C16.1789 17.384 16.4635 17.286 16.6969 17.09C16.9302 16.894 17.1169 16.6093 17.2569 16.236C17.3969 15.8533 17.4995 15.3913 17.5649 14.85C17.6302 14.2993 17.6629 13.6787 17.6629 12.988C17.6629 12.2973 17.6302 11.6813 17.5649 11.14C17.5089 10.5987 17.4062 10.1413 17.2569 9.768C17.1169 9.39467 16.9302 9.11 16.6969 8.914C16.4729 8.718 16.1929 8.62 15.8569 8.62C15.5115 8.62 15.2222 8.718 14.9889 8.914C14.7555 9.11 14.5642 9.39467 14.4149 9.768C14.2749 10.1413 14.1722 10.5987 14.1069 11.14C14.0415 11.6813 14.0089 12.2973 14.0089 12.988C14.0089 13.6787 14.0415 14.2993 14.1069 14.85C14.1722 15.3913 14.2749 15.8533 14.4149 16.236C14.5549 16.6093 14.7415 16.894 14.9749 17.09C15.2175 17.286 15.5069 17.384 15.8429 17.384ZM21.4932 18.098C21.2505 18.098 21.0405 18.028 20.8632 17.888C20.6952 17.748 20.6112 17.5007 20.6112 17.146C20.6112 16.782 20.6952 16.5347 20.8632 16.404C21.0405 16.264 21.2505 16.194 21.4932 16.194C21.7358 16.194 21.9412 16.264 22.1092 16.404C22.2865 16.5347 22.3752 16.782 22.3752 17.146C22.3752 17.5007 22.2865 17.748 22.1092 17.888C21.9412 18.028 21.7358 18.098 21.4932 18.098ZM27.0652 18.14C26.3652 18.14 25.7772 18.0233 25.3012 17.79C24.8345 17.5473 24.4798 17.2253 24.2372 16.824C24.0038 16.4227 23.8872 15.9793 23.8872 15.494C23.8872 15.046 23.9805 14.668 24.1672 14.36C24.3538 14.052 24.6058 13.786 24.9232 13.562C25.2498 13.338 25.6138 13.128 26.0152 12.932C25.6605 12.7267 25.3478 12.5027 25.0772 12.26C24.8065 12.0173 24.5918 11.742 24.4332 11.434C24.2838 11.1167 24.2092 10.762 24.2092 10.37C24.2092 9.94067 24.3118 9.53467 24.5172 9.152C24.7225 8.76933 25.0445 8.46133 25.4832 8.228C25.9312 7.98533 26.5145 7.864 27.2332 7.864C27.8212 7.864 28.3205 7.96667 28.7312 8.172C29.1418 8.37733 29.4545 8.662 29.6692 9.026C29.8838 9.39 29.9912 9.80533 29.9912 10.272C29.9912 10.888 29.8185 11.3687 29.4732 11.714C29.1278 12.05 28.6705 12.358 28.1012 12.638C28.5678 12.8527 28.9738 13.0907 29.3192 13.352C29.6645 13.6133 29.9352 13.9073 30.1312 14.234C30.3272 14.5513 30.4252 14.9153 30.4252 15.326C30.4252 16.2127 30.1218 16.9033 29.5152 17.398C28.9085 17.8927 28.0918 18.14 27.0652 18.14ZM27.1352 17.496C27.7418 17.496 28.2272 17.3233 28.5912 16.978C28.9645 16.6233 29.1512 16.1753 29.1512 15.634C29.1512 15.3913 29.1045 15.172 29.0112 14.976C28.9272 14.7707 28.7872 14.5747 28.5912 14.388C28.4045 14.2013 28.1525 14.0193 27.8352 13.842C27.5178 13.6553 27.1352 13.464 26.6872 13.268C26.2485 13.5013 25.8985 13.8093 25.6372 14.192C25.3758 14.5747 25.2452 15.0273 25.2452 15.55C25.2452 16.1287 25.4038 16.6 25.7212 16.964C26.0385 17.3187 26.5098 17.496 27.1352 17.496ZM27.4152 12.316C27.7698 12.1387 28.0405 11.9567 28.2272 11.77C28.4232 11.574 28.5585 11.3547 28.6332 11.112C28.7078 10.86 28.7452 10.5707 28.7452 10.244C28.7452 9.95467 28.6938 9.67933 28.5912 9.418C28.4885 9.15667 28.3205 8.942 28.0872 8.774C27.8538 8.606 27.5412 8.522 27.1492 8.522C26.6265 8.522 26.2252 8.68067 25.9452 8.998C25.6652 9.31533 25.5252 9.71667 25.5252 10.202C25.5252 10.538 25.5952 10.8273 25.7352 11.07C25.8752 11.3127 26.0852 11.532 26.3652 11.728C26.6452 11.924 26.9952 12.12 27.4152 12.316ZM33.5275 18L36.8315 9.124H33.3455C33.0935 9.124 32.8975 9.18467 32.7575 9.306C32.6268 9.42733 32.5521 9.60467 32.5335 9.838L32.4775 10.538H31.8895L31.9595 8.004H38.2175V8.41L34.7735 18H33.5275ZM42.1738 18L47.1718 8.004H48.0818L43.0978 18H42.1738ZM41.8098 14.08C41.0071 14.08 40.4238 13.7953 40.0598 13.226C39.6958 12.6473 39.5138 11.8913 39.5138 10.958C39.5138 10.0153 39.6958 9.264 40.0598 8.704C40.4238 8.144 41.0118 7.864 41.8238 7.864C42.5891 7.864 43.1585 8.144 43.5318 8.704C43.9145 9.264 44.1058 10.0153 44.1058 10.958C44.1058 11.5833 44.0218 12.1293 43.8538 12.596C43.6858 13.0627 43.4291 13.4267 43.0838 13.688C42.7478 13.9493 42.3231 14.08 41.8098 14.08ZM41.8098 13.506C42.0711 13.506 42.2718 13.408 42.4118 13.212C42.5611 13.0067 42.6685 12.7127 42.7338 12.33C42.7991 11.9473 42.8318 11.49 42.8318 10.958C42.8318 10.426 42.7991 9.97333 42.7338 9.6C42.6685 9.22667 42.5611 8.942 42.4118 8.746C42.2718 8.55 42.0758 8.452 41.8238 8.452C41.5718 8.452 41.3665 8.55 41.2078 8.746C41.0585 8.942 40.9465 9.22667 40.8718 9.6C40.8065 9.97333 40.7738 10.426 40.7738 10.958C40.7738 11.49 40.8065 11.9473 40.8718 12.33C40.9465 12.7127 41.0585 13.0067 41.2078 13.212C41.3571 13.408 41.5578 13.506 41.8098 13.506ZM48.5018 18.14C47.6991 18.14 47.1158 17.8553 46.7518 17.286C46.3878 16.7073 46.2058 15.9513 46.2058 15.018C46.2058 14.0753 46.3878 13.324 46.7518 12.764C47.1158 12.204 47.7038 11.924 48.5158 11.924C49.2811 11.924 49.8505 12.204 50.2238 12.764C50.6065 13.324 50.7978 14.0753 50.7978 15.018C50.7978 15.6433 50.7138 16.1893 50.5458 16.656C50.3778 17.1227 50.1211 17.4867 49.7758 17.748C49.4398 18.0093 49.0151 18.14 48.5018 18.14ZM48.5018 17.566C48.7631 17.566 48.9638 17.468 49.1038 17.272C49.2531 17.0667 49.3605 16.7727 49.4258 16.39C49.4911 16.0073 49.5238 15.55 49.5238 15.018C49.5238 14.486 49.4911 14.0333 49.4258 13.66C49.3605 13.2867 49.2531 13.002 49.1038 12.806C48.9638 12.61 48.7678 12.512 48.5158 12.512C48.2638 12.512 48.0585 12.61 47.8998 12.806C47.7505 13.002 47.6385 13.2867 47.5638 13.66C47.4985 14.0333 47.4658 14.486 47.4658 15.018C47.4658 15.55 47.4985 16.0073 47.5638 16.39C47.6385 16.7727 47.7505 17.0667 47.8998 17.272C48.0491 17.468 48.2498 17.566 48.5018 17.566Z" fill="#FFD600"/>
</svg>
